<?xml version="1.0" standalone="no"?><!DOCTYPE svg PUBLIC "-//W3C//DTD SVG 1.1//EN" "http://www.w3.org/Graphics/SVG/1.1/DTD/svg11.dtd"><svg t="1603760083261" class="icon" viewBox="0 0 1024 1024" version="1.1" xmlns="http://www.w3.org/2000/svg" p-id="3263" xmlns:xlink="http://www.w3.org/1999/xlink" width="200" height="200"><defs><style type="text/css"></style></defs><path d="M77.397333 193.493333l0 736 773.194667 0 0-736L77.397333 193.493333zM806.229333 890.378667l-685.536-1.770667 0.693333-651.114667 685.333333 0L806.229333 890.378667zM206.261333 355.317333l0 171.808 171.818667 0L378.08 355.317333 206.261333 355.317333zM335.125333 484.181333l-85.909333 0 0-85.92 85.909333 0L335.125333 484.181333zM569.877333 496.768 569.877333 496.768l-30.378667 30.357333-30.378667-30.357333 0 0-60.725333-60.789333 30.368-30.368 60.736 60.778667 151.850667-151.893333 30.378667 30.368L569.877333 496.768zM721.728 723.914667 464 723.914667 464 680.96l257.728 0L721.728 723.914667zM206.261333 615.189333l0 171.808 171.818667 0L378.08 615.189333 206.261333 615.189333zM335.125333 744.042667l-85.909333 0 0-85.898667 85.909333 0L335.125333 744.042667zM946.602667 94.506667l0 45.088 0 690.346667-44.458667 0-0.629333-690.346667L206.261333 138.666667 206.261333 94.506667l695.264 0L946.602667 94.506667z" p-id="3264" fill="#515151"></path></svg>