<?xml version="1.0" standalone="no"?><!DOCTYPE svg PUBLIC "-//W3C//DTD SVG 1.1//EN" "http://www.w3.org/Graphics/SVG/1.1/DTD/svg11.dtd"><svg class="icon" width="200px" height="200.00px" viewBox="0 0 1024 1024" version="1.1" xmlns="http://www.w3.org/2000/svg"><path fill="#333333" d="M128 85.333h682.667V512H896V0H42.667v1024H512v-85.333H128z"  /><path fill="#333333" d="M213.333 170.667h512V256h-512z m0 170.666H640v85.334H213.333z m0 170.667h256v85.333h-256zM768 551.48L554.667 668.787v234.666L768 1020.757l213.333-117.305V669.013z m128 301.512l-128 70.372-128-70.372V719.246l128-70.371 128 70.371z"  /><path fill="#333333" d="M725.333 786.148A42.667 42.667 0 1 0 768 743.48a42.667 42.667 0 0 0-42.667 42.667z"  /></svg>