<?xml version="1.0" standalone="no"?><!DOCTYPE svg PUBLIC "-//W3C//DTD SVG 1.1//EN" "http://www.w3.org/Graphics/SVG/1.1/DTD/svg11.dtd"><svg t="1605857331241" class="icon" viewBox="0 0 1099 1024" version="1.1" xmlns="http://www.w3.org/2000/svg" p-id="1168" xmlns:xlink="http://www.w3.org/1999/xlink" width="214.6484375" height="200"><defs><style type="text/css"></style></defs><path d="M899.61227 824.225767c73.50184-84.181595 113.707975-190.35092 113.707975-302.802454 0-123.131288-47.744785-239.352147-135.067484-326.046626C792.186503 109.310429 678.478528 61.565644 557.231902 60.309202c-1.884663-0.628221-10.679755-0.628221-12.564417 0-120.618405 1.884663-233.69816 49.629448-319.136197 135.067485C140.093252 280.814724 92.348466 394.522699 90.463804 515.141104c-0.628221 1.884663-0.628221 8.795092 0 10.679755 1.256442 121.874847 49.001227 235.582822 135.067484 321.64908 87.322699 87.322699 202.915337 135.067485 326.046626 135.067484s239.352147-47.744785 326.046626-135.067484c6.282209-6.282209 12.564417-12.564417 18.218405-19.474847l1.256442-1.256442c1.256442-0.628221 1.884663-1.884663 2.512883-2.512883z m-766.429448-282.699387H326.674847c1.256442 67.847853 9.423313 131.29816 23.244171 188.466258-63.450307 16.961963-104.284663 39.577914-125.015951 53.398773-53.398773-66.591411-87.322699-150.773006-91.720245-241.865031z m91.720245-281.442944c20.731288 13.820859 60.937423 36.43681 125.644172 54.026993-13.192638 55.911656-21.359509 118.733742-23.244172 185.325154H133.182822c5.025767-90.463804 38.321472-173.388957 91.720245-239.352147z m745.069939 239.352147h-193.492024c-1.256442-66.591411-9.423313-129.413497-23.244172-185.325154 64.078528-16.961963 104.912883-39.577914 125.644172-54.026993 53.398773 66.591411 86.694479 148.888344 91.092024 239.352147z m-236.211043 0H572.309202V337.982822c54.026994-1.256442 100.515337-6.910429 140.093252-14.44908 12.564417 54.026994 20.103067 113.707975 21.359509 175.901841zM572.309202 295.892025V105.541104c38.321472 10.679755 75.386503 50.88589 104.284663 113.707976 8.795092 19.474847 16.961963 40.834356 24.500614 63.450307-36.43681 6.910429-79.155828 11.936196-128.785277 13.192638z m-42.719018-190.350921V295.263804c-49.001227-1.256442-91.092025-6.282209-127.528834-13.192638 6.910429-22.615951 15.077301-43.97546 24.500613-63.450307 28.89816-61.565644 65.96319-101.771779 103.028221-113.079755z m0 232.441718v161.452761H369.393865c1.256442-62.193865 8.795092-121.874847 21.98773-175.901841 38.949693 7.53865 84.809816 13.192638 138.208589 14.44908zM369.393865 541.52638h160.82454v163.965645c-53.398773 1.256442-99.258896 6.910429-138.208589 14.449079-13.820859-54.655215-21.359509-114.964417-22.615951-178.414724z m160.196319 206.684663v189.094478c-37.693252-11.307975-74.130061-50.88589-103.028221-113.079754-8.795092-19.474847-16.961963-40.206135-23.872392-62.822086 35.808589-7.53865 77.899387-12.564417 126.900613-13.192638z m42.719018 189.094478V747.582822c49.629448 1.256442 92.348466 6.282209 128.157056 13.192638-6.910429 21.98773-15.077301 43.347239-23.872393 62.822086-28.89816 62.822086-66.591411 103.028221-104.284663 113.707975z m0-231.813496V541.52638h162.080982c-1.256442 63.450307-8.795092 123.759509-21.98773 178.414724-40.206135-7.53865-86.066258-13.192638-140.093252-14.449079z m204.17178-163.965645h193.492024c-4.397546 91.092025-37.693252 174.645399-91.720245 241.23681-21.359509-13.820859-61.565644-36.43681-125.644172-53.398773 14.44908-56.539877 22.615951-119.990184 23.872393-187.838037z m74.130061-313.482208c-18.846626 11.936196-54.026994 30.154601-108.682209 45.231902-20.103067-65.334969-47.744785-118.733742-80.41227-155.798773 72.87362 19.474847 137.580368 58.42454 189.094479 110.566871zM441.639264 116.84908c-32.667485 37.065031-60.937423 90.463804-80.41227 155.798773-54.026994-14.44908-89.207362-33.295706-108.053988-45.231902 51.51411-51.51411 116.220859-90.463804 188.466258-110.566871zM253.801227 815.430675c18.846626-11.936196 54.026994-30.154601 108.053988-44.603681 20.103067 64.706748 47.744785 118.105521 80.41227 155.170552-72.87362-20.103067-137.580368-58.42454-188.466258-110.566871z m407.715337 109.93865c32.667485-37.065031 60.309202-90.463804 80.41227-155.170552 54.026994 14.44908 88.579141 32.667485 108.053988 44.603681-51.51411 52.142331-116.220859 91.092025-188.466258 110.566871z" p-id="1169"></path></svg>